<mxfile host="drawio-plugin" modified="2022-02-04T16:49:50.250Z" agent="5.0 (Macintosh; Intel Mac OS X 12_0_1) AppleWebKit/537.36 (KHTML, like Gecko) Chrome/89.0.4389.114 Safari/537.36" etag="LgzWZXFVBO2v3_IAAE-r" version="15.5.4" type="embed"><diagram id="23iRSUPoRavnBvh4doch" name="Page-1"><mxGraphModel dx="475" dy="682" grid="1" gridSize="10" guides="1" tooltips="1" connect="1" arrows="1" fold="1" page="1" pageScale="1" pageWidth="827" pageHeight="1169" math="0" shadow="0"><root><mxCell id="0"/><mxCell id="1" parent="0"/><mxCell id="10" style="edgeStyle=orthogonalEdgeStyle;rounded=0;orthogonalLoop=1;jettySize=auto;html=1;" edge="1" parent="1" source="2" target="4"><mxGeometry relative="1" as="geometry"/></mxCell><mxCell id="2" value="START" style="rounded=1;whiteSpace=wrap;html=1;" parent="1" vertex="1"><mxGeometry x="200" y="40" width="120" height="60" as="geometry"/></mxCell><mxCell id="3" value="END" style="rounded=1;whiteSpace=wrap;html=1;" parent="1" vertex="1"><mxGeometry x="630" y="410" width="120" height="60" as="geometry"/></mxCell><mxCell id="11" style="edgeStyle=orthogonalEdgeStyle;rounded=0;orthogonalLoop=1;jettySize=auto;html=1;entryX=0.5;entryY=0;entryDx=0;entryDy=0;" edge="1" parent="1" source="4" target="7"><mxGeometry relative="1" as="geometry"/></mxCell><mxCell id="4" value="INPUT N" style="shape=parallelogram;perimeter=parallelogramPerimeter;whiteSpace=wrap;html=1;fixedSize=1;" parent="1" vertex="1"><mxGeometry x="200" y="120" width="120" height="60" as="geometry"/></mxCell><mxCell id="6" value="YES" style="edgeStyle=orthogonalEdgeStyle;rounded=0;orthogonalLoop=1;jettySize=auto;html=1;" edge="1" parent="1" source="7" target="9"><mxGeometry relative="1" as="geometry"/></mxCell><mxCell id="22" style="edgeStyle=orthogonalEdgeStyle;rounded=0;orthogonalLoop=1;jettySize=auto;html=1;" edge="1" parent="1" source="7" target="14"><mxGeometry relative="1" as="geometry"/></mxCell><mxCell id="7" value="If there are less than n repetitions" style="rhombus;whiteSpace=wrap;html=1;" vertex="1" parent="1"><mxGeometry x="220" y="200" width="80" height="80" as="geometry"/></mxCell><mxCell id="8" style="edgeStyle=orthogonalEdgeStyle;rounded=0;orthogonalLoop=1;jettySize=auto;html=1;" edge="1" parent="1" source="9" target="7"><mxGeometry relative="1" as="geometry"><Array as="points"><mxPoint x="190" y="210"/><mxPoint x="190" y="210"/></Array></mxGeometry></mxCell><mxCell id="9" value="Input value into list" style="shape=parallelogram;perimeter=parallelogramPerimeter;whiteSpace=wrap;html=1;fixedSize=1;" vertex="1" parent="1"><mxGeometry x="30" y="210" width="150" height="60" as="geometry"/></mxCell><mxCell id="24" value="" style="edgeStyle=orthogonalEdgeStyle;rounded=0;orthogonalLoop=1;jettySize=auto;html=1;" edge="1" parent="1" source="14" target="23"><mxGeometry relative="1" as="geometry"/></mxCell><mxCell id="25" value="YES" style="edgeLabel;html=1;align=center;verticalAlign=middle;resizable=0;points=[];" vertex="1" connectable="0" parent="24"><mxGeometry x="-0.025" y="2" relative="1" as="geometry"><mxPoint as="offset"/></mxGeometry></mxCell><mxCell id="44" style="edgeStyle=orthogonalEdgeStyle;rounded=0;orthogonalLoop=1;jettySize=auto;html=1;" edge="1" parent="1" source="14" target="35"><mxGeometry relative="1" as="geometry"><Array as="points"><mxPoint x="410" y="310"/><mxPoint x="410" y="310"/></Array></mxGeometry></mxCell><mxCell id="45" value="NO" style="edgeLabel;html=1;align=center;verticalAlign=middle;resizable=0;points=[];" vertex="1" connectable="0" parent="44"><mxGeometry x="-0.4138" y="-1" relative="1" as="geometry"><mxPoint as="offset"/></mxGeometry></mxCell><mxCell id="14" value="If there are less than n repetitions" style="rhombus;whiteSpace=wrap;html=1;" vertex="1" parent="1"><mxGeometry x="220" y="310" width="80" height="80" as="geometry"/></mxCell><mxCell id="27" value="" style="edgeStyle=orthogonalEdgeStyle;rounded=0;orthogonalLoop=1;jettySize=auto;html=1;" edge="1" parent="1" source="23" target="26"><mxGeometry relative="1" as="geometry"/></mxCell><mxCell id="23" value="Exchange = list [number of repetitions]" style="whiteSpace=wrap;html=1;" vertex="1" parent="1"><mxGeometry x="50" y="320" width="120" height="60" as="geometry"/></mxCell><mxCell id="29" value="" style="edgeStyle=orthogonalEdgeStyle;rounded=0;orthogonalLoop=1;jettySize=auto;html=1;" edge="1" parent="1" source="26" target="28"><mxGeometry relative="1" as="geometry"/></mxCell><mxCell id="26" value="list [number of repetitions] = list [number of repetitions&amp;nbsp;+ 2]" style="whiteSpace=wrap;html=1;" vertex="1" parent="1"><mxGeometry x="50" y="410" width="120" height="60" as="geometry"/></mxCell><mxCell id="31" value="" style="edgeStyle=orthogonalEdgeStyle;rounded=0;orthogonalLoop=1;jettySize=auto;html=1;" edge="1" parent="1" source="28" target="30"><mxGeometry relative="1" as="geometry"/></mxCell><mxCell id="28" value="list [number of repetitions + 2] = exchange" style="whiteSpace=wrap;html=1;" vertex="1" parent="1"><mxGeometry x="50" y="500" width="120" height="60" as="geometry"/></mxCell><mxCell id="32" style="edgeStyle=orthogonalEdgeStyle;rounded=0;orthogonalLoop=1;jettySize=auto;html=1;" edge="1" parent="1" source="30" target="14"><mxGeometry relative="1" as="geometry"/></mxCell><mxCell id="30" value="number of repetitions = number of repetitions&lt;br&gt;&amp;nbsp;+ 2" style="whiteSpace=wrap;html=1;" vertex="1" parent="1"><mxGeometry x="200" y="500" width="120" height="60" as="geometry"/></mxCell><mxCell id="33" value="" style="edgeStyle=orthogonalEdgeStyle;rounded=0;orthogonalLoop=1;jettySize=auto;html=1;" edge="1" parent="1" source="35" target="37"><mxGeometry relative="1" as="geometry"/></mxCell><mxCell id="34" value="YES" style="edgeLabel;html=1;align=center;verticalAlign=middle;resizable=0;points=[];" vertex="1" connectable="0" parent="33"><mxGeometry x="-0.025" y="2" relative="1" as="geometry"><mxPoint as="offset"/></mxGeometry></mxCell><mxCell id="58" value="NO" style="edgeStyle=orthogonalEdgeStyle;rounded=0;orthogonalLoop=1;jettySize=auto;html=1;" edge="1" parent="1" source="35" target="57"><mxGeometry relative="1" as="geometry"/></mxCell><mxCell id="35" value="If there are less than n repetitions" style="rhombus;whiteSpace=wrap;html=1;" vertex="1" parent="1"><mxGeometry x="510" y="310" width="80" height="80" as="geometry"/></mxCell><mxCell id="36" value="" style="edgeStyle=orthogonalEdgeStyle;rounded=0;orthogonalLoop=1;jettySize=auto;html=1;" edge="1" parent="1" source="37" target="39"><mxGeometry relative="1" as="geometry"/></mxCell><mxCell id="37" value="Exchange = list [number of repetitions]" style="whiteSpace=wrap;html=1;" vertex="1" parent="1"><mxGeometry x="340" y="320" width="120" height="60" as="geometry"/></mxCell><mxCell id="38" value="" style="edgeStyle=orthogonalEdgeStyle;rounded=0;orthogonalLoop=1;jettySize=auto;html=1;" edge="1" parent="1" source="39" target="41"><mxGeometry relative="1" as="geometry"/></mxCell><mxCell id="39" value="list [number of repetitions] = list [number of repetitions&amp;nbsp;+ 2]" style="whiteSpace=wrap;html=1;" vertex="1" parent="1"><mxGeometry x="340" y="410" width="120" height="60" as="geometry"/></mxCell><mxCell id="40" value="" style="edgeStyle=orthogonalEdgeStyle;rounded=0;orthogonalLoop=1;jettySize=auto;html=1;" edge="1" parent="1" source="41" target="43"><mxGeometry relative="1" as="geometry"/></mxCell><mxCell id="41" value="list [number of repetitions + 2] = exchange" style="whiteSpace=wrap;html=1;" vertex="1" parent="1"><mxGeometry x="340" y="500" width="120" height="60" as="geometry"/></mxCell><mxCell id="42" style="edgeStyle=orthogonalEdgeStyle;rounded=0;orthogonalLoop=1;jettySize=auto;html=1;" edge="1" parent="1" source="43" target="35"><mxGeometry relative="1" as="geometry"/></mxCell><mxCell id="43" value="number of repetitions = number of repetitions&lt;br&gt;&amp;nbsp;+ 1" style="whiteSpace=wrap;html=1;" vertex="1" parent="1"><mxGeometry x="490" y="500" width="120" height="60" as="geometry"/></mxCell><mxCell id="59" style="edgeStyle=orthogonalEdgeStyle;rounded=0;orthogonalLoop=1;jettySize=auto;html=1;" edge="1" parent="1" source="57" target="3"><mxGeometry relative="1" as="geometry"/></mxCell><mxCell id="57" value="OUTPUT list" style="shape=parallelogram;perimeter=parallelogramPerimeter;whiteSpace=wrap;html=1;fixedSize=1;" vertex="1" parent="1"><mxGeometry x="630" y="320" width="120" height="60" as="geometry"/></mxCell></root></mxGraphModel></diagram></mxfile>